<svg version="1" xmlns="http://www.w3.org/2000/svg" width="933.333" height="933.333" viewBox="0 0 700.000000 700.000000"><path d="M111.7 1.6c-.1.1-4.6.4-9.9.8-15.5 1-46 8-50.3 11.6-.8.6-1.1 97.8-.5 157.7 0 2.9.5 3.5 4.4 5.4 2.5 1.1 5.1 2.1 5.8 2.3.7.1 1.9.5 2.6.9.6.5 1.2.6 1.2.3s1.2-.1 2.7.5c15.4 5.8 58.5 7.4 81.3 2.9 21.6-4.2 36.8-13.9 43.2-27.6 2.6-5.7 3.1-8 3.3-15.2.4-15.3-4.3-26.6-15-36.4-2.6-2.4-16.6-10.5-17.2-10-.2.1-.9.2-1.5.2-.7-.1 1.8-1.6 5.6-3.5 14.8-7.4 21.8-19.5 21.1-36.8-.4-10.3-.9-12.7-4.5-20.5-7.1-15.3-24.1-26.1-48.1-30.7-4.6-.9-23.6-2.4-24.2-1.9zm13.1 55c4.4 2.1 7.4 6.8 7.4 11.2-.1 5.6-.6 7.1-3.6 10.3-3.5 3.7-8 5.6-15.1 6.4-5.9.7-5.9.7-5.7-5 0-1.1.2-6.6.3-12.2.3-10 .3-10.3 2.8-11.2 4-1.5 10.5-1.3 13.9.5zm-1.8 53.8c11.6 4.7 12.6 21.3 1.7 26.5-4.4 2.1-11.7 2.9-15.3 1.7-2.1-.6-2.2-1.2-2-14.4 0-7.8.5-14 1.1-14.5 1.4-1 11.4-.6 14.5.7zM258.5 4.7c-3.8.7-11.2 3.5-16.3 6-7.4 3.6-11 6.2-17 12.2-9.8 9.7-10.3 10.4-16.2 21.4-4.9 9.4-9.3 21.8-10.5 29.7-.4 2.5-.8 4.7-1 5-1.3 2-1.9 19.4-1.1 30 .5 6.5.9 9 2.6 16.7 2 8.8 9.2 26.3 11.2 27.1.4.2.8.9.8 1.5 0 2.5 11.3 14.7 18.3 20 5.8 4.4 17.3 9.3 25.7 11.1 15.6 3.2 39.7.4 52.7-6.3 10.2-5.2 9.6-4.3 11-18.1.3-3.6.7-7.7.7-9.3.1-1.5.3-2.7.6-2.7s.5-1.7.6-3.8c0-2 .3-6.4.7-9.7 1.4-11.6 1.8-18.5 1.2-18.5-.3 0-2.1 1.1-3.8 2.4-5.7 4.2-18.2 10.5-26 13-12.6 4.1-23.7 2.5-31.5-4.7-2.4-2.2-7.2-9.9-7.2-11.5 0-1 3.5-1.8 11.5-2.7 5.4-.6 10.8-1.3 18.5-2.6 3.6-.6 8.3-1.2 10.5-1.5 4.6-.5 7.1-.8 13.5-1.8 4.8-.7 8.9-1.1 21.5-2.2 4.4-.3 8.2-.8 8.4-1 1.3-1.2 1.8-30 .7-37.4-3.5-23.8-13.3-42-29.2-54-11.3-8.5-32.9-12-50.9-8.3zm24.9 54.2c2.8 2.3 5.4 8.8 6 14.8.5 4.9.4 5.1-2.2 5.8-1.5.4-5.6.8-9.2 1-6.1.3-14.1 1.1-21.7 2-3.9.5-4-.1-1.4-7.2 3.6-9.9 10.1-17.6 15.9-18.9 1.5-.3 3.2-.7 3.7-.8 1.6-.4 6.8 1.5 8.9 3.3zM408 4.2c-4.1.4-10.6 1.7-14.5 2.8-8 2.3-18.5 7-18.5 8.2 0 .4-.5.8-1.2.8-1.4 0-10.5 7.4-13.1 10.7-1 1.3-2.4 2.9-3 3.6-4.6 5-9.2 14.2-11.1 22.8-1.6 6.7-1.8 20.2-.4 26.4 2.5 10.6 10.6 22.3 19.3 27.7 8.2 5 15.6 6.9 28.8 7.3 14 .4 18.3 1.3 21.7 4.5 1.8 1.6 3 3.8 3 5.3 0 3.3-4.2 7.3-8.8 8.4-6 1.4-19.2.9-30.7-1.2-5.3-1-16.3-4.6-20.7-6.8-2.4-1.1-4.6-2.1-5-2.2-.3 0-1-.3-1.4-.8-1.1-1.1-2.1-.9-2.2.5-1.3 14.2-2.2 22.2-2.6 23.8-.5 1.6-1.7 14.4-2 19.9-.1 2.8.4 3.7 3 5.1 3.6 2.1 23.7 9.7 27.4 10.4 1.4.3 4.3 1 6.5 1.6 6.4 1.8 11.5 2.4 20 2.4 38.2-.1 64.2-17.6 71.7-48.2 1.7-7.3 1.8-24.3.1-31-4.2-16.4-16-27.6-33.5-31.9-1.3-.3-9.1-.5-17.5-.4-11.4.1-16.1-.2-18.8-1.3-1.9-.8-3.5-1.9-3.6-2.3 0-.4-.3-2-.5-3.5-.3-1.9.2-3.3 1.8-4.8 3.7-3.4 9.4-4.5 23.8-4.4 11.2.1 15.2.6 23.5 2.8 11.8 3.1 12 3.1 12.1.8.1-.9.4-5.3.9-9.7.4-4.4.8-10 1-12.5.4-5.3 1.3-14.6 2.1-21.1.5-4.5.4-4.7-2.8-6.2-11.9-5.6-37.9-9.2-54.8-7.5zM480.4 8l-3.1.5-.2 7.5c-.7 26.5-1.2 44.9-1.5 47.8l-.2 3.2 9.5-.5c5.3-.3 13.8-.8 18.9-1l9.2-.5.1 3.7c0 2.1.2 6.5.4 9.8.2 3.3.6 14.3 1 24.5s.9 21 1 24c.2 3 .6 13.8 1 24 .9 21.5 1.2 28.3 1.4 29.2 0 .3 4.3.4 9.4.2 8-.3 14.6-.6 37.7-1.9 2.5-.1 4.7-.3 5-.4.3 0 .6-1.3.6-2.9.1-1.5.4-10.4.8-19.7.4-9.4.8-22 1-28 .2-6.1.7-18.2 1.1-27 .4-8.8.8-20.7 1-26.3.2-5.7.7-10.8 1.1-11.2.5-.5 8.8-1.2 18.4-1.5 9.6-.4 17.7-.8 17.9-1.1.3-.2.5-5.3.6-11.2.1-5.9.4-17.3.6-25.4.2-8.1 0-15-.4-15.4-.5-.6-92.8-.8-118.2-.3-2.2 0-4.2 0-4.5-.1-1.4-.4-6.8-.4-9.6 0zM576.8 256.5c-.2.1-6.1.5-13.3.9-19.9 1-29.1 2.5-44.7 7.2l-8.8 2.7-.1 4.6c-.1 2.5-.3 9.1-.4 14.6-.2 5.5-.6 22.8-.9 38.5-.3 15.7-.8 37.3-1.1 48-.3 10.7-.7 29.7-.9 42.2l-.5 22.8h26.8c20.7 0 26.8-.3 26.9-1.3.1-1.2.6-12.2 1.7-36.2.3-7.6.7-14 .8-14.1.1-.2 3.5-.5 7.5-.7 6-.4 7.4-.2 8.1 1.2.5.9 4.1 10.6 8 21.6 11.2 31 10.9 30.4 13.4 29.9 3.7-.8 11.1-2.3 13.2-2.7 6.6-1.4 10.1-2.1 10.5-2.2.3 0 2.8-.5 5.5-1 2.8-.5 5.2-.9 5.5-1 .3 0 4.6-.9 9.7-1.9l9.2-1.8-1.2-2.7c-.6-1.4-1.4-2.8-1.7-3.1-.5-.5-1.6-2.3-5.9-10.3-4.6-8.5-8.1-14.7-13.6-24.4-7.4-12.8-7.4-12.3-1.8-16.3 6.1-4.3 13.7-12.3 16.9-17.6 9.4-15.8 10.6-41.9 2.8-59.1-9.5-20.7-31.5-34.5-58.9-36.9-3.3-.3-7.5-.7-9.2-.8-1.8-.2-3.4-.2-3.5-.1zm7.7 44.9c5.4 2.3 8.4 5.2 10.7 10.6 2.5 5.7 2.8 16.2.6 20.5-4.1 7.7-13.1 13-24.3 14.4-5.7.6-6.7.5-7.5-.9-.5-1-.7-1.9-.5-2.2.2-.2.7-8 1.1-17.3.5-14.6.9-22.9 1.3-25.7.3-2 13.4-1.5 18.6.6zM47.3 264.3c-.4.7-.9 4.6-1 8.7-.1 4.1-.4 17.1-.7 28.8l-.6 21.3 8.8-.5c4.8-.3 13.1-.8 18.5-1.1 7.6-.5 9.7-.3 9.8.7.4 5.4.8 12.8 1.4 28.8.4 10.2.9 21.2 1 24.5.2 3.3.6 13.6 1 23 .3 9.3.8 20.1 1 24 .2 3.8.4 8.7.4 10.7l.1 3.7 8.3-.4c4.5-.2 13.6-.7 20.2-1 10.3-.6 18.8-1.1 23.2-1.4.6-.1 1.2-.9 1.2-1.9-.1-2.2.9-26.4 1.6-41.7.3-6.6.8-18.8 1.1-27 .3-8.3.7-20.9 1-28 .3-7.2.5-13.8.5-14.7 0-1 .4-2 .8-2.2.4-.3 8.6-.8 18.2-1.1 9.6-.4 17.6-.9 17.9-1.2.2-.2.6-4.3.7-9.1.1-4.8.4-16.5.6-26 .4-12.5.2-17.2-.7-17.3-7.6-.5-69.6-.2-69.6.4 0 .5-.5.5-1.1.1-.7-.4-8-.6-16.3-.5-16.7.2-15.6.2-24.4 0-3.5 0-6.6.1-6.8.4-.3.3-2 .1-3.8-.3-1.9-.4-4-.4-4.6 0-.7.4-2.6.4-4.1 0-1.9-.6-3.1-.5-3.6.3zM247.1 265.6c-13.1 2.7-25.1 8.7-36 17.9-1.8 1.6-9.4 10.3-14 16.1-.4.5-2.6 4.8-4.9 9.5-4 8.3-6.4 15.7-7.8 23.4-.9 5.5-1 25.2-.1 29.5 2.8 13 8.3 25.8 14.9 34.2 5 6.5 15.8 16.8 17.5 16.8.7 0 1.3.4 1.3.9 0 1.3 15.2 8.6 22 10.6 7.9 2.3 12.2 2.8 23.5 2.9 24.3 0 46.8-11.3 61.1-30.6 4.9-6.6 10.5-17 11.1-20.2.2-1.1.7-2.4 1.2-3 1.9-2.3 4.3-16.6 4.6-26.6.5-19.5-2-29.8-11.9-48.7-2.4-4.5-10.4-13.2-16.8-18.1-5.3-4-16.2-10-19.5-10.7-1-.2-3.1-.8-4.7-1.4-1.6-.7-4.5-1.4-6.5-1.7-2-.3-4.5-.8-5.6-1.1-4-1.2-23.2-1-29.4.3zm25.4 56.2c7.1 3.7 11.7 10.6 13.1 19.7 1.3 8.3.6 13.3-2.7 20.2-8.4 17.3-31.1 18.8-40.5 2.7-10.5-17.8-3.2-40.5 14.1-44.4 5.1-1.2 11.8-.4 16 1.8zM442.4 277.9c-.1 7.5-.5 19-.9 25.6-.4 6.6-.8 13.7-.9 15.7 0 2.1-.5 3.8-.9 3.8-.5 0-.5.4-.2 1 .8 1.3-1.5 18.1-4.1 30-.8 3.6-1.7 7.6-2 9-1.8 8.2-9.5 22.9-12.1 23-.6 0-1.3.5-1.5 1.2-.3.7-2.2 1.2-4.7 1.2-3.4 0-4.7-.6-6.1-2.4-2.3-3-4.3-9.3-4.6-14.5-.1-2.2-.3-4.2-.4-4.5-.5-1.3-.1-20.1.5-25 .4-3 .9-7.1 1.1-9 .2-1.9.9-6.1 1.5-9.2.5-3.2 1.2-7 1.5-8.5.3-1.6.7-3.6 1-4.6.3-1 .7-3 .9-4.5.2-1.5 1.1-5.4 2-8.7.9-3.3 1.8-6.9 2-7.9.3-1 .9-3.3 1.4-5 .6-1.7 1.3-4.2 1.6-5.6.2-1.4.7-3.6 1.1-5l.5-2.6-10.8-.1c-10.2-.1-40.8-1.1-40.8-1.3 0-.1-2.1-.2-4.7-.3l-4.6-.2-1.6 7c-.9 3.8-1.8 8.3-2.1 10-.3 1.6-.7 4-.9 5.2-.3 1.2-.7 4.9-1.1 8.2-.3 3.3-.7 6.8-.9 7.8-.4 1.7-1.2 10.9-2.2 24.3-.6 8.2-.6 38.5 0 42.5 1.5 10.1 10.8 32.8 14.2 34.8.8.4 1.4 1.4 1.4 2 0 2.2 14.1 14.7 19.9 17.6 10.5 5.4 21.1 6.9 31.2 4.5 5.4-1.3 11.9-4.4 14.7-7.1.7-.7 1.6-1.3 1.9-1.3.5 0-.3 8.8-1.3 15.2l-.4 2.8 7.7-.5c4.3-.3 10.1-.7 12.8-1 9.3-.8 23-1.8 26.7-1.9 2.1-.1 3.8-.3 3.9-.6 0-.3.2-1.2.3-2 .2-.8.6-5.3 1-10 .6-8.1.9-11 2.1-24.5.3-3.3.7-8.7 1-12 .3-3.3.7-8.3 1-11 .3-2.8.7-7.5 1-10.5 1-12.9 1.6-19.7 2-23 .4-3.5 1.3-11.8 2-20 .6-6.1 1.5-14.5 2.1-20 .9-7.9 1.2-10.4 1.9-16.5.3-3.3.8-7.6 1.1-9.5 1-8.4 1.6-13.6 1.8-14.4 0-.6-11.1-1.1-28.4-1.1l-28.5-.2-.1 13.6zM570.8 514.7c-7.3 1.9-16.3 7.2-22.5 13.4l-5.3 5.1.3-9.3.2-9.4-10 .1c-10.1.1-41.8 1.6-48.1 2.3-.5 0-1.1 2.2-1.1 4.8 0 4.3-.4 14.6-1.8 47.3-.4 8.8-1.2 25.3-2 41-.2 3.6-.4 6.5-.5 6.5 0 0-.3 4.3-.5 9.5-.4 11.8-1.5 33-2 39-.2 2.5-.5 7.5-.6 11.2-.1 3.8-.5 6.8-.8 6.8-.5 0-7.9-24.6-14.1-47-1-3.6-3.5-12.1-5.5-19s-3.9-13.2-4-14c-.2-.8-.4-1.5-.5-1.5-.1 0-.3-.7-.5-1.5s-1.1-4-2-7c-.9-3-2.4-8.4-3.4-12-2.6-9.2-8.9-30.9-10-34.5-.5-1.7-2.1-7.3-3.6-12.5s-3.3-11.1-4-13l-1.3-3.5-7.8.1c-4.4.1-13.1.4-19.4.8-6.3.3-16.9.9-23.5 1.2-17.6.9-17.3.8-18.3 1.9-.5.6-3.5 9.8-6.7 20.5-3.1 10.7-8 26.9-10.7 36-2.8 9.1-5.6 18.5-6.3 21-.7 2.5-3.2 10.8-5.5 18.5-2.3 7.7-4.4 14.9-4.7 16-.3 1.1-.7 2.7-1 3.5-.3.8-.7 2-.8 2.6-.2.6-1.7 5.6-3.3 11-1.7 5.4-4.6 15.1-6.6 21.4-1.9 6.3-3.7 12.3-4.1 13.3-.6 1.4-.2 1.7 2.1 1.8 1.6 0 3.8.2 4.9.5 1.1.2 5.2.6 9.1.9 3.8.3 8 .7 9.1.9 1.2.3 5.7.8 10 1.1 4.3.4 9.4.8 11.3 1 1.9.2 6.5.7 10.2 1l6.7.7.7-2.9c.3-1.5 1.2-5.3 1.9-8.3.7-3 1.8-8.1 2.5-11.3l1.3-5.7H406.6l1.4 4.7c.8 2.7 1.5 5.2 1.6 5.8.1.5 1.2 4.7 2.5 9.3l2.2 8.3 5.6-.6c3.1-.3 6.8-.8 8.2-1 3.3-.6 9.1-1.4 15.4-2 6.2-.7 11.3-1.4 14.5-2 1.3-.2 4.8-.7 7.8-1 3-.3 6.7-.7 8.2-1 2.5-.4 2.6-.3 2.2 3.1l-.4 3.5 13.8-.5c7.7-.3 19.8-.9 26.9-1.2 7.2-.3 15.1-.7 17.7-.8 2.5 0 4.9-.4 5.2-.7.3-.3.8-14 1.1-30.5 1.3-74.4 1.8-80.4 6.8-91.2 4-8.7 12.5-12.2 16.2-6.5 4.5 6.8 6 18 5.9 42.8 0 18-.3 23.9-1.9 37-.2 2.2-.7 6.2-1 9-.3 2.7-.7 5.9-.9 7-.5 2.6-1.5 9-2.2 14-.3 2.2-1 6.6-1.5 9.9-.6 3.2-.8 6.1-.5 6.4.4.3 10.2.7 21.9.9 11.6.1 27.4.4 35 .6l13.8.2.6-2.5c.9-3.4 1-89.3.1-100-.4-4.7-1.1-11-1.7-14-.6-3-1.2-6.6-1.5-8-.5-3.1-2.5-10.8-3.6-13.5-5.8-15.2-10.2-21.8-18.5-28.2-10.2-7.7-24.5-10.7-36.7-7.6zm-176.9 73.1c-.1.9.4 3.5 1 5.7 1.3 4.9 7.1 31.4 7.1 32.4 0 .4-3.9.7-8.7.6-10.6 0-10.2 1.4-5.8-18.5 2.5-11.2 2.5-11.3 3.1-14.5.3-1.7.7-3.7.9-4.5.2-.8.4-2.1.4-2.8.1-2 2-.4 2 1.6zM206.1 517.7c.1 1.6-.2 15.2-.6 30.3-.4 15.1-.8 35.1-1 44.5-.2 9.3-.7 30.7-1 47.5-1.1 46.9-1.1 53.5.1 53.3.5-.1 5-.4 10-.8 4.9-.3 10.9-.7 13.4-1 2.5-.2 8.1-.7 12.5-1 4.4-.3 10.5-.8 13.5-1 8.8-.7 21.2-1.7 25.5-2 8.2-.6 23.1-1.8 25-2 1.1-.1 2.5-.3 3.2-.4.6 0 1.1-.9 1.1-1.9 0-.9.2-4.6.6-8.2.4-3.6.9-8.8 1.1-11.5.6-5.8 1.3-12.4 2.1-19.8 1.2-10.6 1.1-13.7-.5-13.8-.9 0-12.2-.1-25.1-.2l-23.5-.2.1-4c.1-3.6.9-14.7 2-27.5.2-2.5.6-7.4.9-11 .9-11.8 1.5-19.4 2-25 1.6-18.8 2.3-27.1 3.1-38.8l.5-8.2H206l.1 2.7zM109.7 517.6c-.1.1-4.3.5-9.2.8-5 .4-10.2.8-11.5 1.1-1.4.2-4.7.6-7.4 1-2.7.3-5.2.8-5.5 1-.3.1-2.2.6-4.1.9-11.6 1.9-20 4.6-20.1 6.5-.4 4.7-1.3 162.1-1 167.2.1 1.5 3.1 1.6 29.1 1.6h29l.2-26.6.3-26.6 4.5-.2c2.5 0 4.7-.2 5-.3.3 0 3-.3 6-.5 3-.3 9.7-1.5 14.9-2.6 28-6.3 46.2-20.3 53.2-40.9 2.8-8.3 3.4-24.2 1.3-33.3-3.4-14.3-12.8-27.6-25-35-4.1-2.5-16.4-8.6-16.4-8.1 0 .2-1.2-.1-2.7-.7-2.8-1.1-4.4-1.5-9.2-2.5-1.4-.3-2.7-.7-3.1-.9-1.2-.7-27.7-2.5-28.3-1.9zm23.5 53.2c5 3.1 7.1 7.4 7 14.5 0 4.9-.5 6.7-2.9 10.1-5.1 7.2-12 10.6-21.9 10.6h-5l.3-3.8c.1-2 .5-9.6.7-16.7.3-7.2.5-13.8.5-14.8.1-1 .5-1.6 1-1.2.5.3 1.2.2 1.5-.3.2-.4 2.2-.9 4.2-1 2.1-.2 4-.4 4.2-.6.7-.8 7.3 1.3 10.4 3.2z"/></svg>